<svg width="87" height="84" viewBox="0 0 87 84" fill="none" xmlns="http://www.w3.org/2000/svg">
<ellipse cx="43.5" cy="42" rx="43.5" ry="42" fill="#DD1D23"/>
<path d="M53.9167 33.5003H51.0833C51.0833 29.5337 47.9667 26.417 44 26.417C40.0333 26.417 36.9167 29.5337 36.9167 33.5003H34.0833C32.525 33.5003 31.25 34.7753 31.25 36.3337V53.3337C31.25 54.892 32.525 56.167 34.0833 56.167H53.9167C55.475 56.167 56.75 54.892 56.75 53.3337V36.3337C56.75 34.7753 55.475 33.5003 53.9167 33.5003ZM44 29.2503C46.4083 29.2503 48.25 31.092 48.25 33.5003H39.75C39.75 31.092 41.5917 29.2503 44 29.2503ZM53.9167 53.3337H34.0833V36.3337H53.9167V53.3337ZM44 42.0003C41.5917 42.0003 39.75 40.1587 39.75 37.7503H36.9167C36.9167 41.717 40.0333 44.8337 44 44.8337C47.9667 44.8337 51.0833 41.717 51.0833 37.7503H48.25C48.25 40.1587 46.4083 42.0003 44 42.0003Z" fill="white"/>
</svg>
