<svg width="18" height="17" viewBox="0 0 18 17" fill="none" xmlns="http://www.w3.org/2000/svg">
<rect x="0.5" y="0.5" width="17" height="16" stroke="#808080"/>
<path d="M8.52382 4.95836C8.50046 4.95785 8.47723 4.96137 8.45548 4.96872C8.43374 4.97606 8.41395 4.98709 8.39726 5.00114C8.38058 5.01518 8.36736 5.03196 8.35838 5.05048C8.3494 5.069 8.34485 5.08888 8.345 5.10894V5.69356C8.345 5.77623 8.42065 5.84119 8.51694 5.84119V5.84709C10.6594 5.91796 12.3823 7.39721 12.4648 9.23668H12.4717C12.4717 9.31935 12.5473 9.38431 12.6436 9.38431H13.3245C13.4242 9.38431 13.5033 9.31345 13.4999 9.23077C13.407 6.91003 11.2268 5.03808 8.52382 4.95836ZM8.52382 6.43466C8.50055 6.43443 8.47746 6.43814 8.45586 6.44559C8.43427 6.45304 8.4146 6.46407 8.39798 6.47806C8.38137 6.49206 8.36814 6.50873 8.35904 6.52712C8.34995 6.54551 8.34518 6.56526 8.345 6.58524V7.16986C8.345 7.25253 8.42065 7.31749 8.51694 7.31749V7.32635C9.71024 7.39426 10.6628 8.21213 10.7419 9.23668H10.7522C10.7522 9.31935 10.8279 9.38431 10.9242 9.38431H11.6051C11.7014 9.38431 11.7839 9.31345 11.7804 9.23077C11.6876 7.72495 10.2777 6.51438 8.52382 6.43466ZM5.42194 6.72697C5.32566 6.72697 5.25 6.79193 5.25 6.8746V10.1225C5.25 11.1795 6.25416 12.0416 7.48528 12.0416C8.7164 12.0416 9.72055 11.1795 9.72055 10.1225C9.72055 9.06543 8.7164 8.20327 7.48528 8.20327C7.38899 8.20327 7.31333 8.26823 7.31333 8.3509V9.23668C7.31333 9.31935 7.38899 9.38431 7.48528 9.38431C7.71329 9.38431 7.93196 9.46208 8.09319 9.60051C8.25442 9.73894 8.345 9.92669 8.345 10.1225C8.345 10.3182 8.25442 10.506 8.09319 10.6444C7.93196 10.7828 7.71329 10.8606 7.48528 10.8606C7.37238 10.8606 7.26058 10.8415 7.15628 10.8044C7.05197 10.7673 6.95719 10.713 6.87736 10.6444C6.79753 10.5759 6.7342 10.4945 6.691 10.4049C6.64779 10.3154 6.62556 10.2194 6.62556 10.1225V6.8746C6.62556 6.79193 6.5499 6.72697 6.45361 6.72697H5.42194Z" fill="#808080"/>
</svg>
