<svg width="20" height="20" viewBox="0 0 20 20" fill="none" xmlns="http://www.w3.org/2000/svg">
<g clip-path="url(#clip0_1_10)">
<path d="M10.0015 1.11133C8.27103 1.11277 6.61147 1.79893 5.38526 3.01994C4.15905 4.24094 3.46584 5.89757 3.45703 7.628C3.45703 10.2224 4.91259 12.3947 5.97925 13.978L6.1737 14.2669C7.23526 15.8048 8.37375 17.2882 9.58481 18.7113L10.007 19.2058L10.4293 18.7113C11.6403 17.2882 12.7788 15.8048 13.8404 14.2669L14.0348 13.9724C15.0959 12.3891 16.5515 10.2224 16.5515 7.628C16.5427 5.89661 15.8487 4.23914 14.6213 3.01798C13.3939 1.79682 11.7329 1.11131 10.0015 1.11133ZM10.0015 10.5558C9.28067 10.5558 8.57606 10.342 7.97673 9.94157C7.37741 9.54112 6.91029 8.97193 6.63445 8.306C6.35861 7.64006 6.28644 6.90729 6.42706 6.20033C6.56768 5.49338 6.91478 4.844 7.42446 4.33432C7.93415 3.82463 8.58353 3.47753 9.29048 3.33691C9.99743 3.19629 10.7302 3.26846 11.3961 3.5443C12.0621 3.82014 12.6313 4.28726 13.0317 4.88658C13.4322 5.48591 13.6459 6.19053 13.6459 6.91133C13.6459 7.8779 13.262 8.80487 12.5785 9.48834C11.895 10.1718 10.968 10.5558 10.0015 10.5558Z" fill="white"/>
<path d="M10.0019 8.98331C11.1464 8.98331 12.0741 8.05555 12.0741 6.91109C12.0741 5.76663 11.1464 4.83887 10.0019 4.83887C8.85745 4.83887 7.92969 5.76663 7.92969 6.91109C7.92969 8.05555 8.85745 8.98331 10.0019 8.98331Z" fill="white"/>
</g>
<defs>
<clipPath id="clip0_1_10">
<rect width="20" height="20" fill="white"/>
</clipPath>
</defs>
</svg>
