<svg width="20" height="20" viewBox="0 0 20 20" fill="none" xmlns="http://www.w3.org/2000/svg">
<path d="M14.8386 16.7827C14.8828 16.7095 14.9062 16.6256 14.9063 16.5401V3.47013C14.9062 3.38704 14.8842 3.30544 14.8422 3.2337C14.8003 3.16195 14.7401 3.10264 14.6677 3.06183C14.5953 3.02102 14.5134 3.00019 14.4303 3.00146C14.3472 3.00273 14.266 3.02607 14.1949 3.06908L4.18792 9.12269C3.7006 9.41754 3.5445 10.0516 3.83934 10.5389C3.92564 10.6815 4.04525 10.8011 4.18792 10.8874L14.1949 16.9412C14.3012 17.0055 14.4288 17.025 14.5495 16.9953C14.6702 16.9655 14.7742 16.8891 14.8386 16.7827ZM15.8438 3.47013V16.5401C15.8437 16.7967 15.7735 17.0484 15.6407 17.268C15.2387 17.9325 14.3741 18.1453 13.7096 17.7433L3.70265 11.6896C3.43028 11.5248 3.20191 11.2965 3.03713 11.0241C2.47434 10.0938 2.77229 8.88333 3.70265 8.32056L13.7095 2.26683C13.9291 2.13403 14.1809 2.06384 14.4375 2.06388C15.2141 2.06388 15.8438 2.69342 15.8438 3.47013Z" fill="white"/>
</svg>
