<svg width="15" height="15" viewBox="0 0 15 15" fill="none" xmlns="http://www.w3.org/2000/svg">
<path d="M3.5 11.493H4V10.993H3.5V11.493ZM3.5 14.491H3C3 14.5839 3.02586 14.6749 3.07467 14.7539C3.12349 14.8329 3.19334 14.8967 3.27639 14.9382C3.35945 14.9797 3.45242 14.9973 3.5449 14.989C3.63738 14.9806 3.72572 14.9467 3.8 14.891L3.5 14.491ZM7.5 11.493V10.993H7.333L7.2 11.093L7.5 11.493ZM4.5 3.997H4V4.997H4.5V3.997ZM10.5 4.997H11V3.997H10.5V4.997ZM4.5 6.995H4V7.995H4.5V6.995ZM8.5 7.995H9V6.995H8.5V7.995ZM3 11.493V14.491H4V11.493H3ZM3.8 14.891L7.8 11.893L7.2 11.093L3.2 14.091L3.8 14.891ZM7.5 11.993H13.5V10.993H7.5V11.993ZM13.5 11.993C14.329 11.993 15 11.323 15 10.493H14C14 10.77 13.777 10.993 13.5 10.993V11.993ZM15 10.493V1.5H14V10.494L15 10.493ZM15 1.5C15 0.67 14.329 0 13.5 0V1C13.777 1 14 1.223 14 1.5H15ZM13.5 0H1.5V1H13.5V0ZM1.5 0C0.671 0 0 0.67 0 1.5H1C1 1.223 1.223 1 1.5 1V0ZM0 1.5V10.494H1V1.499L0 1.5ZM0 10.494C0 11.323 0.671 11.993 1.5 11.993V10.993C1.4343 10.9931 1.36922 10.9803 1.3085 10.9552C1.24778 10.9301 1.19261 10.8933 1.14615 10.8468C1.0997 10.8004 1.06287 10.7452 1.03779 10.6845C1.01271 10.6238 0.999868 10.5587 1 10.493L0 10.494ZM1.5 11.993H3.5V10.993H1.5V11.993ZM4.5 4.997H10.5V3.997H4.5V4.997ZM4.5 7.995H8.5V6.995H4.5V7.995Z" fill="#646464"/>
</svg>
