<svg width="16" height="21" viewBox="0 0 16 21" fill="none" xmlns="http://www.w3.org/2000/svg">
<path d="M2.80629 0.468103L3.97329 0.117103C4.61258 -0.075673 5.30017 -0.0292666 5.90776 0.247663C6.51535 0.524593 7.00142 1.01313 7.27529 1.6221L8.17729 3.6281C8.41275 4.1519 8.47832 4.73628 8.3648 5.29924C8.25127 5.8622 7.96435 6.37549 7.54429 6.7671L6.04929 8.1601C6.00561 8.2008 5.97795 8.25578 5.97129 8.3151C5.92729 8.7121 6.19629 9.4851 6.81729 10.5601C7.26729 11.3411 7.67629 11.8901 8.02329 12.1971C8.26629 12.4121 8.39929 12.4581 8.45629 12.4421L10.4663 11.8271C11.0152 11.6592 11.6029 11.6673 12.147 11.8502C12.6911 12.0331 13.1643 12.3817 13.5003 12.8471L14.7803 14.6231C15.17 15.1631 15.3505 15.8261 15.2883 16.4891C15.2261 17.1521 14.9255 17.77 14.4423 18.2281L13.5553 19.0681C13.0851 19.5134 12.5075 19.8293 11.8789 19.9851C11.2503 20.1409 10.5921 20.1313 9.96829 19.9571C7.21429 19.1881 4.74529 16.8641 2.53329 13.0331C0.319286 9.1971 -0.458714 5.8931 0.259286 3.1201C0.420462 2.49644 0.739572 1.92481 1.18586 1.4603C1.63215 0.995798 2.18956 0.654087 2.80629 0.468103ZM3.24029 1.9051C2.87017 2.01641 2.53497 2.22118 2.26699 2.49967C1.99901 2.77816 1.80728 3.12099 1.71029 3.4951C1.10829 5.8271 1.79729 8.7561 3.83329 12.2831C5.86729 15.8051 8.05629 17.8661 10.3733 18.5131C10.7476 18.6175 11.1425 18.6232 11.5196 18.5296C11.8968 18.436 12.2432 18.2464 12.5253 17.9791L13.4113 17.1391C13.6311 16.9309 13.7679 16.65 13.7962 16.3485C13.8245 16.0471 13.7425 15.7456 13.5653 15.5001L12.2853 13.7251C12.1325 13.5133 11.9173 13.3547 11.6698 13.2715C11.4223 13.1882 11.155 13.1846 10.9053 13.2611L8.89029 13.8781C7.72029 14.2261 6.65929 13.2851 5.51929 11.3101C4.74929 9.9801 4.39129 8.9501 4.48129 8.1491C4.52729 7.7331 4.72129 7.3491 5.02629 7.0631L6.52129 5.6701C6.71214 5.492 6.84245 5.25861 6.89392 5.00269C6.94539 4.74676 6.91545 4.48114 6.80829 4.2431L5.90729 2.2371C5.78279 1.96029 5.56182 1.73824 5.28562 1.61238C5.00943 1.48651 4.69687 1.46545 4.40629 1.5531L3.24029 1.9051Z" fill="#808080"/>
</svg>
