<svg width="20" height="20" viewBox="0 0 20 20" fill="none" xmlns="http://www.w3.org/2000/svg">
<path d="M5.16144 3.22753C5.11717 3.30071 5.09376 3.38461 5.09375 3.47015V16.5401C5.09375 16.6232 5.11585 16.7048 5.15776 16.7766C5.19968 16.8483 5.25991 16.9076 5.33229 16.9484C5.40467 16.9892 5.4866 17.0101 5.56968 17.0088C5.65277 17.0075 5.73402 16.9842 5.80511 16.9412L15.8121 10.8876C16.2994 10.5927 16.4555 9.95867 16.1607 9.47137C16.0744 9.32872 15.9547 9.20911 15.8121 9.12281L5.80513 3.06909C5.69876 3.00474 5.57119 2.98529 5.45048 3.015C5.32976 3.04471 5.22579 3.12116 5.16144 3.22753ZM4.15625 16.5401V3.47015C4.15626 3.21354 4.22649 2.96183 4.35931 2.74228C4.7613 2.07778 5.62587 1.86497 6.29038 2.26696L16.2974 8.3207C16.5697 8.48545 16.7981 8.71379 16.9629 8.98614C17.5257 9.91641 17.2277 11.1269 16.2974 11.6897L6.29045 17.7434C6.07087 17.8762 5.81912 17.9464 5.5625 17.9464C4.78588 17.9464 4.15625 17.3168 4.15625 16.5401Z" fill="white"/>
</svg>
