<svg width="14" height="13" viewBox="0 0 14 13" fill="none" xmlns="http://www.w3.org/2000/svg">
<path d="M13.7355 6.06758L6.98906 0.212221C6.93728 0.167578 6.87121 0.142578 6.80156 0.142578H5.22121C5.08906 0.142578 5.02835 0.306864 5.12835 0.392578L11.3819 5.82115H0.93192C0.853348 5.82115 0.789062 5.88544 0.789062 5.96401V7.03544C0.789062 7.11401 0.853348 7.17829 0.93192 7.17829H11.3801L5.12656 12.6069C5.02656 12.6944 5.08728 12.8569 5.21942 12.8569H6.85335C6.88728 12.8569 6.92121 12.8444 6.94621 12.8211L13.7355 6.93186C13.7973 6.87811 13.8469 6.81171 13.8808 6.73716C13.9148 6.66261 13.9324 6.58164 13.9324 6.49972C13.9324 6.4178 13.9148 6.33683 13.8808 6.26228C13.8469 6.18773 13.7973 6.12134 13.7355 6.06758Z" fill="black" fill-opacity="0.85"/>
</svg>
