<svg width="30" height="31" viewBox="0 0 30 31" fill="none" xmlns="http://www.w3.org/2000/svg">
<path d="M28.2616 10.5094L19.7604 9.27387L15.9602 1.56963C15.8564 1.35869 15.6857 1.18793 15.4747 1.08414C14.9457 0.822976 14.3028 1.04061 14.0383 1.56963L10.2381 9.27387L1.737 10.5094C1.50263 10.5428 1.28834 10.6533 1.12428 10.8207C0.925936 11.0246 0.81664 11.2989 0.820407 11.5833C0.824174 11.8677 0.940695 12.1389 1.14437 12.3375L7.29504 18.3341L5.84191 26.8018C5.80784 26.9987 5.82963 27.2013 5.90483 27.3865C5.98003 27.5718 6.10562 27.7322 6.26736 27.8497C6.42911 27.9672 6.62053 28.037 6.81992 28.0512C7.01932 28.0654 7.21871 28.0235 7.39548 27.9301L14.9993 23.9324L22.6031 27.9301C22.8107 28.0406 23.0517 28.0774 23.2828 28.0373C23.8654 27.9368 24.2571 27.3844 24.1566 26.8018L22.7035 18.3341L28.8542 12.3375C29.0216 12.1734 29.1321 11.9591 29.1656 11.7248C29.256 11.1388 28.8475 10.5964 28.2616 10.5094Z" fill="#E04F30"/>
</svg>
