<svg width="43" height="47" viewBox="0 0 43 47" fill="none" xmlns="http://www.w3.org/2000/svg">
<path d="M34.6799 34.9532V11.3881C34.6799 10.8358 34.2321 10.3881 33.6799 10.3881H10.5252M34.6799 34.9532H39.5C40.6046 34.9532 41.5 34.0578 41.5 32.9532V4C41.5 2.89543 40.6046 2 39.5 2H12.5252C11.4206 2 10.5252 2.89543 10.5252 4V10.3881M34.6799 34.9532V42.5396C34.6799 43.6441 33.7844 44.5396 32.6799 44.5396H4C2.89543 44.5396 2 43.6441 2 42.5396V12.3881C2 11.2835 2.89543 10.3881 4 10.3881H10.5252" stroke="#808080" stroke-width="3"/>
<path d="M27.8595 25.3668H14.5034V28.9617H27.8595V25.3668Z" fill="#808080" stroke="#808080"/>
<path d="M12.2301 25.3668H8.82007V28.9617H12.2301V25.3668Z" fill="#808080" stroke="#808080"/>
<path d="M27.8595 31.9574H14.5034V35.5523H27.8595V31.9574Z" fill="#808080" stroke="#808080"/>
<path d="M12.2301 31.9574H8.82007V35.5523H12.2301V31.9574Z" fill="#808080" stroke="#808080"/>
<path d="M27.8595 18.177H14.5034V21.7719H27.8595V18.177Z" fill="#808080" stroke="#808080"/>
<path d="M12.2301 18.177H8.82007V21.7719H12.2301V18.177Z" fill="#808080" stroke="#808080"/>
</svg>
