<svg width="42" height="42" viewBox="0 0 42 42" fill="none" xmlns="http://www.w3.org/2000/svg">
<path d="M34.0983 12.8621L25.4008 4.35707C25.1596 4.11615 24.873 3.92557 24.5576 3.79638C24.2421 3.6672 23.9041 3.602 23.5633 3.60457H11.4883C10.328 3.60457 9.21516 4.0655 8.39469 4.88597C7.57422 5.70644 7.11328 6.81924 7.11328 7.97957V34.0196C7.11651 35.1789 7.57849 36.2898 8.39826 37.1096C9.21803 37.9294 10.329 38.3913 11.4883 38.3946H30.5108C31.6701 38.3913 32.781 37.9294 33.6008 37.1096C34.4206 36.2898 34.8825 35.1789 34.8858 34.0196V14.7346C34.8855 14.3858 34.8157 14.0406 34.6805 13.7191C34.5453 13.3975 34.3474 13.1062 34.0983 12.8621ZM31.8758 13.1246H27.7808C27.0846 13.1246 26.4169 12.848 25.9246 12.3557C25.4323 11.8634 25.1558 11.1958 25.1558 10.4996V6.56207L31.8758 13.1246ZM33.1358 34.0196C33.1358 34.7158 32.8592 35.3834 32.3669 35.8757C31.8747 36.368 31.207 36.6446 30.5108 36.6446H11.4883C10.7921 36.6446 10.1244 36.368 9.63213 35.8757C9.13984 35.3834 8.86328 34.7158 8.86328 34.0196V7.97957C8.86328 7.28337 9.13984 6.61569 9.63213 6.12341C10.1244 5.63113 10.7921 5.35457 11.4883 5.35457H23.4058V10.4996C23.4058 11.6599 23.8667 12.7727 24.6872 13.5932C25.5077 14.4136 26.6205 14.8746 27.7808 14.8746H33.1358V34.0196Z" fill="black"/>
<rect x="16" y="26" width="15" height="15" rx="7.5" fill="white"/>
<path d="M23 35.9444V29.5M23 29.5L24.5 31.9444M23 29.5L21.5 31.9444M20 35.7222V36.6111C20 36.8469 20.0903 37.073 20.2511 37.2397C20.4118 37.4063 20.6298 37.5 20.8571 37.5H25.1429C25.3702 37.5 25.5882 37.4063 25.7489 37.2397C25.9097 37.073 26 36.8469 26 36.6111V35.7222" stroke="#DD1D23" stroke-linecap="round" stroke-linejoin="round"/>
</svg>
