<svg width="20" height="20" viewBox="0 0 20 20" fill="none" xmlns="http://www.w3.org/2000/svg">
<g clip-path="url(#clip0_308_2492)">
<mask id="mask0_308_2492" style="mask-type:luminance" maskUnits="userSpaceOnUse" x="0" y="0" width="34" height="34">
<path d="M0 0H33.3333V33.3333H0V0Z" fill="white"/>
</mask>
<g mask="url(#mask0_308_2492)">
<path d="M13.1848 18.053C13.1644 18.3083 13.0685 18.5517 12.9095 18.7523C12.7504 18.953 12.5352 19.1018 12.2914 19.1798L10.7249 19.6345C10.0761 19.7913 9.41979 19.4048 9.25922 18.7709C9.25337 18.7477 9.24807 18.7244 9.24335 18.7009C9.15447 18.3744 9.19296 18.0264 9.35103 17.7272C9.50911 17.4281 9.77495 17.2001 10.0947 17.0896L11.6612 16.6359C11.864 16.5778 12.0789 16.5767 12.2823 16.6327C12.4857 16.6887 12.6697 16.7996 12.8142 16.9533C14.0221 16.4148 15.0179 15.4918 15.6465 14.3282H15.2479C13.9895 14.261 13.0223 13.2135 13.0858 11.985V9.63901C13.0233 8.41047 13.9895 7.36303 15.2479 7.29582H15.7894C15.8659 7.29582 15.9434 7.30048 16.0199 7.30982C15.1471 4.05269 11.734 2.10345 8.39663 2.95577C6.21214 3.5131 4.50656 5.17761 3.93429 7.30982C4.01178 7.30048 4.08833 7.29582 4.16581 7.29582H4.70727C5.96382 7.3649 6.9291 8.4114 6.86655 9.63901V11.9822C6.93003 13.2107 5.96382 14.2582 4.70447 14.3254H4.16301C2.90646 14.2572 1.94118 13.2117 2.00279 11.9841V9.63901C2.00279 9.57833 2.00279 9.51765 2.00933 9.4579C2.00519 9.4207 2.003 9.38331 2.00279 9.34588C2.00279 4.73044 5.58013 1 9.97619 1C14.3732 1 17.9505 4.7295 17.9505 9.34588C17.9505 9.38322 17.9477 9.42056 17.944 9.4579C17.944 9.51765 17.9505 9.57833 17.9505 9.63901V11.9822C17.9545 12.3466 17.8757 12.7071 17.7199 13.0365C17.5642 13.366 17.3356 13.6557 17.0515 13.8838C16.7222 14.8038 16.2098 15.6474 15.5451 16.3637C14.8805 17.08 14.0776 17.654 13.1848 18.0512V18.053Z" fill="#262728"/>
</g>
</g>
<defs>
<clipPath id="clip0_308_2492">
<rect width="20" height="20" fill="white"/>
</clipPath>
</defs>
</svg>
