<svg width="33" height="32" viewBox="0 0 33 32" fill="none" xmlns="http://www.w3.org/2000/svg">
<path d="M32.2617 1.46289H0.0798988V12.434H32.2617V6.94843V1.46289Z" fill="#DD1D23"/>
<path d="M7.30343 8.77048C7.6125 9.00404 7.76703 9.32727 7.76703 9.74014C7.76703 10.1507 7.6184 10.4739 7.32113 10.7098C7.02386 10.9457 6.61098 11.0637 6.0825 11.0637C5.55402 11.0637 5.12227 10.9823 4.78725 10.8195V10.0976C5.24024 10.3123 5.6885 10.4196 6.13205 10.4196C6.42696 10.4196 6.64755 10.3642 6.79383 10.2533C6.9401 10.14 7.01324 9.99023 7.01324 9.80384C7.01324 9.61746 6.94836 9.46528 6.8186 9.34732C6.68884 9.227 6.4128 9.0819 5.99049 8.91203C5.56818 8.7398 5.27091 8.5428 5.09868 8.32103C4.92645 8.09926 4.84034 7.83502 4.84034 7.52831C4.84034 7.13903 4.97836 6.8335 5.25439 6.61173C5.53279 6.3876 5.89848 6.27553 6.35146 6.27553C6.80444 6.27553 7.25389 6.37344 7.69979 6.56926L7.45561 7.19211C7.03801 7.01753 6.66878 6.93023 6.34792 6.93023C6.10727 6.93023 5.92207 6.98332 5.79231 7.08948C5.66255 7.19329 5.59767 7.33485 5.59767 7.51416C5.59767 7.63684 5.62244 7.74183 5.67199 7.82912C5.72861 7.91877 5.81354 8.00017 5.92679 8.07331C6.04239 8.14644 6.26063 8.25025 6.58149 8.38473C6.90471 8.51921 7.14536 8.64779 7.30343 8.77048ZM12.3647 11H11.5543L11.0907 9.70829H9.3071L8.85412 11H8.05078L9.79193 6.32508H10.62L12.3647 11ZM9.53005 9.05005H10.889C10.528 7.99545 10.3287 7.40799 10.2909 7.28766C10.2532 7.16734 10.2237 7.06471 10.2024 6.97978C10.1458 7.23694 10.0621 7.52241 9.95119 7.8362L9.53005 9.05005ZM14.4013 9.227L15.3709 6.34277H16.1636L14.5322 11H13.7289L12.1045 6.34277H12.8866L13.8598 9.23761C13.907 9.36973 13.9589 9.54078 14.0155 9.75076C14.0721 9.95838 14.1111 10.1271 14.1323 10.2568C14.1606 10.094 14.2043 9.90411 14.2632 9.68706C14.3246 9.47 14.3706 9.31665 14.4013 9.227ZM19.4138 10.3524V11H16.7808V6.34277H19.4138V6.98686H17.5417V8.25379H19.297V8.8908H17.5417V10.3524H19.4138ZM8.04307 29.9631V31H4.66339V30.1719L5.79939 29.0217C6.12969 28.6749 6.3432 28.4414 6.43993 28.321C6.53666 28.2007 6.60508 28.0957 6.64519 28.0061C6.6853 27.9164 6.70535 27.8173 6.70535 27.7088C6.70535 27.6003 6.66524 27.5106 6.58503 27.4398C6.50717 27.3691 6.39747 27.3337 6.25591 27.3337C6.11435 27.3337 5.96926 27.3738 5.82062 27.454C5.67434 27.5342 5.50212 27.6604 5.30394 27.8327L4.61031 27.0222C4.84624 26.8099 5.04795 26.6566 5.21546 26.5622C5.55756 26.3711 5.95156 26.2755 6.39747 26.2755C6.84809 26.2661 7.22204 26.3841 7.51931 26.6294C7.81658 26.8748 7.96167 27.1815 7.95459 27.5495C7.95459 27.9011 7.86022 28.2231 7.67148 28.5157C7.57239 28.669 7.44263 28.8295 7.2822 28.997C7.12177 29.1645 6.78793 29.4759 6.28068 29.9312V29.9631H8.04307ZM9.76577 29.3686C9.76577 29.5762 9.80942 29.7449 9.89671 29.8746C9.98401 30.002 10.0973 30.0657 10.2364 30.0657C10.378 30.0657 10.4889 30.0138 10.5691 29.91C10.6517 29.8038 10.693 29.6446 10.693 29.4323C10.693 29.0548 10.5455 28.866 10.2506 28.866C10.1043 28.866 9.98637 28.9156 9.89671 29.0147C9.80942 29.1114 9.76577 29.2294 9.76577 29.3686ZM10.923 27.2558C10.5007 27.2558 10.1869 27.349 9.98165 27.5354C9.77639 27.7218 9.66432 28.0226 9.64545 28.4378H9.68438C9.87548 28.0768 10.1798 27.8964 10.5974 27.8964C11.0174 27.8964 11.3406 28.0297 11.5671 28.2963C11.7959 28.5605 11.9104 28.9403 11.9104 29.4358C11.9104 29.9289 11.7653 30.3241 11.4751 30.6213C11.1872 30.9162 10.7767 31.0637 10.2435 31.0637C9.71033 31.0637 9.28802 30.8856 8.97659 30.5293C8.66752 30.1707 8.51299 29.6717 8.51299 29.0324C8.51063 28.0768 8.71235 27.3809 9.11815 26.9444C9.5263 26.5056 10.1374 26.2826 10.9513 26.2755C11.1471 26.2755 11.3689 26.2944 11.6166 26.3322V27.316C11.3972 27.2759 11.166 27.2558 10.923 27.2558ZM16.9703 28.9085C16.8877 28.9085 16.8264 28.9639 16.7863 29.0748C16.7485 29.1834 16.7296 29.3579 16.7296 29.5986C16.7296 30.0586 16.8098 30.2887 16.9703 30.2887C17.1331 30.2887 17.2145 30.0586 17.2145 29.5986C17.2145 29.1385 17.1331 28.9085 16.9703 28.9085ZM16.9526 28.1299C17.3277 28.1299 17.625 28.2609 17.8444 28.5228C18.0638 28.7846 18.1735 29.1444 18.1735 29.6021C18.1735 30.0575 18.0673 30.4125 17.855 30.6673C17.645 30.9221 17.3513 31.0495 16.9738 31.0495C16.5987 31.0495 16.3038 30.9174 16.0891 30.6532C15.8767 30.3866 15.7706 30.0256 15.7706 29.5703C15.7706 29.1149 15.8744 28.761 16.082 28.5086C16.2896 28.2562 16.5798 28.1299 16.9526 28.1299ZM13.4313 27.0541C13.3464 27.0541 13.2839 27.1095 13.2438 27.2204C13.206 27.3313 13.1872 27.5071 13.1872 27.7477C13.1872 27.9884 13.206 28.1641 13.2438 28.275C13.2839 28.3836 13.3452 28.4378 13.4278 28.4378C13.5104 28.4378 13.5705 28.3836 13.6083 28.275C13.6484 28.1665 13.6685 27.9896 13.6685 27.7442C13.6685 27.2841 13.5894 27.0541 13.4313 27.0541ZM16.0077 26.3428H16.9526L14.3692 31H13.4243L16.0077 26.3428ZM13.4101 26.2755C13.7852 26.2755 14.0825 26.4065 14.3019 26.6684C14.5213 26.9302 14.631 27.29 14.631 27.7477C14.631 28.2054 14.5261 28.5629 14.3161 28.82C14.1061 29.0748 13.8124 29.2022 13.4349 29.2022C13.0574 29.2022 12.7613 29.0701 12.5466 28.8059C12.3343 28.5416 12.2281 28.1807 12.2281 27.723C12.2281 27.2653 12.3319 26.9102 12.5395 26.6577C12.7472 26.4029 13.0373 26.2755 13.4101 26.2755Z" fill="white"/>
</svg>
