<svg width="36" height="29" viewBox="0 0 36 29" fill="none" xmlns="http://www.w3.org/2000/svg">
<path d="M34.7143 0.6875H1.28571C0.574554 0.6875 0 1.26205 0 1.97321V27.6875C0 28.3987 0.574554 28.9732 1.28571 28.9732H34.7143C35.4254 28.9732 36 28.3987 36 27.6875V1.97321C36 1.26205 35.4254 0.6875 34.7143 0.6875ZM33.1071 5.13929V26.0804H2.89286V5.13929L1.78393 4.27545L3.36295 2.24643L5.08259 3.58438H30.9214L32.6411 2.24643L34.2201 4.27545L33.1071 5.13929ZM30.9214 3.58036L18 13.625L5.07857 3.58036L3.35893 2.24241L1.77991 4.27143L2.88884 5.13527L16.6138 15.8067C17.0086 16.1133 17.4941 16.2798 17.994 16.2798C18.4938 16.2798 18.9794 16.1133 19.3741 15.8067L33.1071 5.13929L34.2161 4.27545L32.6371 2.24643L30.9214 3.58036Z" fill="#6D6E71"/>
</svg>
