<svg width="11" height="16" viewBox="0 0 11 16" fill="none" xmlns="http://www.w3.org/2000/svg">
<path d="M10.0967 7.49349L1.0404 0.420051C1.01674 0.40142 0.9883 0.389842 0.958352 0.386646C0.928404 0.38345 0.898162 0.388766 0.871099 0.401983C0.844036 0.4152 0.82125 0.435782 0.805357 0.461365C0.789464 0.486948 0.781109 0.516496 0.781252 0.546613V2.09952C0.781252 2.19795 0.827457 2.29237 0.903797 2.35264L8.13594 7.99974L0.903797 13.6468C0.825448 13.7071 0.781252 13.8015 0.781252 13.9V15.4529C0.781252 15.5875 0.935939 15.6618 1.0404 15.5794L10.0967 8.50599C10.1736 8.44595 10.2359 8.36914 10.2787 8.28142C10.3216 8.19369 10.3438 8.09736 10.3438 7.99974C10.3438 7.90212 10.3216 7.80578 10.2787 7.71806C10.2359 7.63033 10.1736 7.55353 10.0967 7.49349Z" fill="black"/>
</svg>
