<svg width="70" height="28" viewBox="0 0 70 28" fill="none" xmlns="http://www.w3.org/2000/svg">
<rect width="70" height="28" fill="#DD1D23"/>
<path d="M14.664 10.752L13.848 11.82C13.504 11.364 13.068 11.136 12.54 11.136C12.156 11.136 11.876 11.232 11.7 11.424C11.524 11.608 11.436 11.824 11.436 12.072C11.436 12.288 11.52 12.468 11.688 12.612C11.816 12.732 12.136 12.884 12.648 13.068C13.44 13.34 13.98 13.608 14.268 13.872C14.724 14.28 14.952 14.84 14.952 15.552C14.952 16.336 14.692 16.972 14.172 17.46C13.66 17.94 12.992 18.18 12.168 18.18C11.016 18.18 10.096 17.676 9.408 16.668L10.428 15.696C10.604 16.056 10.848 16.324 11.16 16.5C11.472 16.676 11.788 16.764 12.108 16.764C12.468 16.764 12.764 16.664 12.996 16.464C13.228 16.256 13.344 15.988 13.344 15.66C13.344 15.38 13.24 15.14 13.032 14.94C12.84 14.764 12.428 14.568 11.796 14.352C11.204 14.152 10.76 13.92 10.464 13.656C10.04 13.288 9.828 12.792 9.828 12.168C9.828 11.52 10.048 10.968 10.488 10.512C10.928 10.048 11.564 9.816 12.396 9.816C13.3 9.816 14.056 10.128 14.664 10.752ZM21.653 18L20.945 16.32H17.717L17.009 18H15.317L18.761 9.996H19.985L23.333 18H21.653ZM18.209 15.048H20.489L19.349 12.168L18.209 15.048ZM22.6412 9.996H24.3452L26.4812 15.372L28.6172 9.996H30.3212L26.9372 18H26.0012L22.6412 9.996ZM35.6918 9.996V11.34H32.8118V13.128H35.5718V14.472H32.8118V16.656H35.6918V18H31.2518V9.996H35.6918ZM39.3098 18L41.6618 15.324C42.4298 14.428 42.8858 13.872 43.0298 13.656C43.3418 13.192 43.4978 12.764 43.4978 12.372C43.4978 12.012 43.3818 11.72 43.1498 11.496C42.9258 11.272 42.6458 11.16 42.3098 11.16C41.9258 11.16 41.6218 11.292 41.3978 11.556C41.1738 11.812 41.0538 12.124 41.0378 12.492H39.4298C39.4618 11.684 39.7378 11.036 40.2578 10.548C40.7778 10.06 41.4378 9.816 42.2378 9.816C43.1178 9.816 43.8058 10.068 44.3018 10.572C44.8058 11.076 45.0578 11.672 45.0578 12.36C45.0578 12.744 44.9698 13.128 44.7938 13.512C44.6178 13.896 44.4498 14.188 44.2898 14.388C44.1298 14.58 43.9018 14.836 43.6058 15.156L42.2258 16.656H45.1178V18H39.3098ZM51.5061 17.076C50.9061 17.812 50.1781 18.18 49.3221 18.18C48.4661 18.18 47.7341 17.812 47.1261 17.076C46.5261 16.332 46.2261 15.304 46.2261 13.992C46.2261 12.688 46.5261 11.668 47.1261 10.932C47.7341 10.188 48.4661 9.816 49.3221 9.816C50.1781 9.816 50.9061 10.188 51.5061 10.932C52.1141 11.668 52.4181 12.692 52.4181 14.004C52.4181 15.308 52.1141 16.332 51.5061 17.076ZM50.3781 11.868C50.0661 11.396 49.7141 11.16 49.3221 11.16C48.9301 11.16 48.5741 11.396 48.2541 11.868C47.9421 12.332 47.7861 13.04 47.7861 13.992C47.7861 14.944 47.9421 15.656 48.2541 16.128C48.5661 16.6 48.9221 16.836 49.3221 16.836C49.7221 16.836 50.0781 16.6 50.3901 16.128C50.7021 15.656 50.8581 14.944 50.8581 13.992C50.8581 13.04 50.6981 12.332 50.3781 11.868ZM53.6344 10.44C54.0024 10.08 54.4944 9.9 55.1104 9.9C55.7264 9.9 56.2144 10.08 56.5744 10.44C56.9424 10.792 57.1264 11.244 57.1264 11.796C57.1264 12.348 56.9424 12.804 56.5744 13.164C56.2144 13.516 55.7264 13.692 55.1104 13.692C54.4944 13.692 54.0024 13.516 53.6344 13.164C53.2744 12.804 53.0944 12.348 53.0944 11.796C53.0944 11.244 53.2744 10.792 53.6344 10.44ZM54.3784 12.54C54.5704 12.732 54.8144 12.828 55.1104 12.828C55.4064 12.828 55.6464 12.732 55.8304 12.54C56.0224 12.348 56.1184 12.1 56.1184 11.796C56.1184 11.492 56.0224 11.244 55.8304 11.052C55.6464 10.86 55.4064 10.764 55.1104 10.764C54.8144 10.764 54.5704 10.86 54.3784 11.052C54.1944 11.244 54.1024 11.492 54.1024 11.796C54.1024 12.1 54.1944 12.348 54.3784 12.54ZM54.6784 17.964L59.4424 9.732L60.0784 10.092L55.3144 18.336L54.6784 17.964ZM58.1704 14.868C58.5384 14.508 59.0304 14.328 59.6464 14.328C60.2624 14.328 60.7504 14.508 61.1104 14.868C61.4784 15.22 61.6624 15.672 61.6624 16.224C61.6624 16.776 61.4784 17.232 61.1104 17.592C60.7504 17.944 60.2624 18.12 59.6464 18.12C59.0304 18.12 58.5384 17.944 58.1704 17.592C57.8104 17.232 57.6304 16.776 57.6304 16.224C57.6304 15.672 57.8104 15.22 58.1704 14.868ZM58.9144 16.968C59.1064 17.16 59.3504 17.256 59.6464 17.256C59.9424 17.256 60.1824 17.16 60.3664 16.968C60.5584 16.776 60.6544 16.528 60.6544 16.224C60.6544 15.92 60.5584 15.672 60.3664 15.48C60.1824 15.288 59.9424 15.192 59.6464 15.192C59.3504 15.192 59.1064 15.288 58.9144 15.48C58.7304 15.672 58.6384 15.92 58.6384 16.224C58.6384 16.528 58.7304 16.776 58.9144 16.968Z" fill="white"/>
</svg>
