<svg width="44" height="34" viewBox="0 0 44 34" fill="none" xmlns="http://www.w3.org/2000/svg">
<mask id="mask0_444_1095" style="mask-type:luminance" maskUnits="userSpaceOnUse" x="0" y="0" width="44" height="34">
<path d="M0.5625 0.673828H43.4992V33.1176H0.5625V0.673828Z" fill="white"/>
</mask>
<g mask="url(#mask0_444_1095)">
<path fill-rule="evenodd" clip-rule="evenodd" d="M39.4759 6.75723C39.4759 6.21944 39.1932 5.70368 38.6899 5.3234C38.1867 4.94313 37.5041 4.72949 36.7924 4.72949H18.0076C17.2958 4.72949 16.6133 4.94313 16.11 5.3234C15.6068 5.70368 15.324 6.21944 15.324 6.75723V8.6633L6.07474 12.1618C5.62889 12.33 5.25382 12.5887 4.99155 12.9089C4.72929 13.229 4.59019 13.5981 4.58984 13.9746V26.529C4.58984 26.8089 4.8904 27.036 5.26073 27.036H6.6025C6.78043 27.036 6.95108 26.9826 7.07689 26.8875C7.20271 26.7924 7.27339 26.6635 7.27339 26.529L7.27518 13.9746L18.0076 9.91915V6.75723H36.7924V26.5277C36.7924 26.8075 37.0929 27.0346 37.4633 27.0346H38.805C38.983 27.0346 39.1536 26.9812 39.2794 26.8861C39.4053 26.7911 39.4759 26.6621 39.4759 26.5277V6.75723ZM20.0202 27.0346C19.8423 27.0346 19.6717 26.9812 19.5458 26.8861C19.42 26.7911 19.3493 26.6621 19.3493 26.5277V25.5138C19.3493 25.234 19.6499 25.0069 20.0202 25.0069H24.0455C24.4159 25.0069 24.7164 25.234 24.7164 25.5138V26.5277C24.7164 26.6621 24.6458 26.7911 24.5199 26.8861C24.3941 26.9812 24.2235 27.0346 24.0455 27.0346H20.0202ZM18.0076 26.0207C18.0076 25.5547 17.8861 25.0933 17.6501 24.6628C17.4141 24.2322 17.0682 23.8411 16.6321 23.5115C16.196 23.182 15.6783 22.9206 15.1085 22.7423C14.5388 22.564 13.9281 22.4722 13.3114 22.4722C12.6947 22.4722 12.084 22.564 11.5142 22.7423C10.9444 22.9206 10.4267 23.182 9.99065 23.5115C9.55456 23.8411 9.20865 24.2322 8.97264 24.6628C8.73663 25.0933 8.61516 25.5547 8.61516 26.0207C8.61516 26.9619 9.10994 27.8645 9.99065 28.5299C10.8714 29.1954 12.0659 29.5693 13.3114 29.5693C14.5569 29.5693 15.7514 29.1954 16.6321 28.5299C17.5128 27.8645 18.0076 26.9619 18.0076 26.0207ZM11.2987 26.0207C11.2987 25.6174 11.5108 25.2306 11.8882 24.9454C12.2656 24.6602 12.7776 24.4999 13.3114 24.4999C13.8452 24.4999 14.3571 24.6602 14.7345 24.9454C15.112 25.2306 15.324 25.6174 15.324 26.0207C15.324 26.4241 15.112 26.8109 14.7345 27.0961C14.3571 27.3813 13.8452 27.5415 13.3114 27.5415C12.7776 27.5415 12.2656 27.3813 11.8882 27.0961C11.5108 26.8109 11.2987 26.4241 11.2987 26.0207ZM30.7544 22.4722C31.9999 22.4722 33.1944 22.8461 34.0751 23.5115C34.9558 24.177 35.4506 25.0796 35.4506 26.0207C35.4506 26.9619 34.9558 27.8645 34.0751 28.5299C33.1944 29.1954 31.9999 29.5693 30.7544 29.5693C29.5089 29.5693 28.3144 29.1954 27.4337 28.5299C26.553 27.8645 26.0582 26.9619 26.0582 26.0207C26.0582 25.0796 26.553 24.177 27.4337 23.5115C28.3144 22.8461 29.5089 22.4722 30.7544 22.4722ZM30.7544 24.4999C30.4901 24.4999 30.2284 24.5393 29.9842 24.6157C29.74 24.6921 29.5181 24.8041 29.3312 24.9454C29.1444 25.0866 28.9961 25.2542 28.895 25.4388C28.7938 25.6233 28.7418 25.821 28.7418 26.0207C28.7418 26.2205 28.7938 26.4182 28.895 26.6027C28.9961 26.7872 29.1444 26.9549 29.3312 27.0961C29.5181 27.2373 29.74 27.3494 29.9842 27.4258C30.2284 27.5022 30.4901 27.5415 30.7544 27.5415C31.2882 27.5415 31.8001 27.3813 32.1776 27.0961C32.555 26.8109 32.7671 26.4241 32.7671 26.0207C32.7671 25.6174 32.555 25.2306 32.1776 24.9454C31.8001 24.6602 31.2882 24.4999 30.7544 24.4999Z" fill="white"/>
<path d="M17.3368 11.8408C17.7071 11.8408 18.0077 12.0679 18.0077 12.3478V18.431C18.0077 18.5654 17.937 18.6944 17.8112 18.7894C17.6854 18.8845 17.5147 18.9379 17.3368 18.9379H10.6279C10.45 18.9379 10.2793 18.8845 10.1535 18.7894C10.0277 18.6944 9.95703 18.5654 9.95703 18.431V17.4171C9.95703 17.1373 10.2576 16.9102 10.6279 16.9102H14.6532C14.8312 16.9102 15.0018 16.8568 15.1276 16.7617C15.2534 16.6666 15.3241 16.5377 15.3241 16.4032V12.3478C15.3241 12.0679 15.6247 11.8408 15.995 11.8408H17.3368Z" fill="#DA3B1F"/>
</g>
</svg>
