<svg width="25" height="24" viewBox="0 0 25 24" fill="none" xmlns="http://www.w3.org/2000/svg">
<mask id="mask0_444_1077" style="mask-type:luminance" maskUnits="userSpaceOnUse" x="0" y="1" width="25" height="24">
<path d="M0.589844 1H24.5898V25H0.589844V1Z" fill="white"/>
</mask>
<g mask="url(#mask0_444_1077)">
<path fill-rule="evenodd" clip-rule="evenodd" d="M22.3398 9.25C22.3398 8.85218 22.1818 8.47064 21.9005 8.18934C21.6192 7.90804 21.2377 7.75 20.8398 7.75H4.33984C3.94202 7.75 3.56049 7.90804 3.27918 8.18934C2.99788 8.47064 2.83984 8.85218 2.83984 9.25V20.5C2.83984 20.8978 2.99788 21.2794 3.27918 21.5607C3.56049 21.842 3.94202 22 4.33984 22H20.8398C21.2377 22 21.6192 21.842 21.9005 21.5607C22.1818 21.2794 22.3398 20.8978 22.3398 20.5V9.25ZM4.33984 9.25H20.8398V20.5H4.33984V9.25Z" fill="white"/>
<path d="M7.43084 3.97L4.33984 7.06V7.5H20.8398V7.06L17.7488 3.97C17.6083 3.82931 17.4177 3.75018 17.2188 3.75H7.95984C7.761 3.75018 7.57136 3.82931 7.43084 3.97Z" fill="black" stroke="white" stroke-width="1.5"/>
<path d="M11.7948 9.48467C11.8652 9.41444 11.9605 9.375 12.0598 9.375C12.1592 9.375 12.2545 9.41444 12.3248 9.48467L12.8548 10.0147C12.9251 10.085 12.9645 10.1803 12.9645 10.2797C12.9645 10.379 12.9251 10.4744 12.8548 10.5447L11.3998 11.9997H16.7148C16.9218 11.9997 17.0898 12.1677 17.0898 12.3747V16.8747C17.0898 16.9741 17.0503 17.0695 16.98 17.1398C16.9097 17.2102 16.8143 17.2497 16.7148 17.2497H8.46484C8.36539 17.2497 8.27001 17.2102 8.19968 17.1398C8.12935 17.0695 8.08984 16.9741 8.08984 16.8747V16.1247C8.08984 15.9177 8.25784 15.7497 8.46484 15.7497H15.5898V13.4997H8.68484C8.61072 13.4996 8.53829 13.4776 8.47668 13.4364C8.41507 13.3952 8.36706 13.3366 8.3387 13.2681C8.31034 13.1997 8.30292 13.1243 8.31736 13.0516C8.3318 12.9789 8.36747 12.9121 8.41984 12.8597L11.7948 9.48467Z" fill="#DA3B1F"/>
</g>
</svg>
