<svg width="34" height="28" viewBox="0 0 34 28" fill="none" xmlns="http://www.w3.org/2000/svg">
<mask id="mask0_444_1087" style="mask-type:luminance" maskUnits="userSpaceOnUse" x="0" y="0" width="34" height="28">
<path d="M0.5625 0H33.2784V27.8955H0.5625V0Z" fill="white"/>
</mask>
<g mask="url(#mask0_444_1087)">
<path d="M16.898 3.35444L16.928 3.37536L16.9594 3.39512L17.6328 3.8182C19.0396 4.70272 20.1819 5.42103 21.4946 5.90339C23.0623 6.47874 24.8194 6.70887 27.5402 6.70887V14.3987C27.5402 17.4696 25.4587 19.8709 22.9873 21.6423C20.5608 23.3799 17.8945 24.4086 16.9212 24.7515C15.9465 24.4086 13.2788 23.3799 10.8538 21.6423C8.38097 19.8709 6.30078 17.4696 6.30078 14.3987V6.70887H6.35803C9.05028 6.70887 10.7979 6.47874 12.3546 5.89293C13.6823 5.39314 14.8274 4.64577 16.2492 3.71824C16.4359 3.5962 16.6281 3.46951 16.8271 3.34165L16.8558 3.32422L16.898 3.35444Z" fill="black" stroke="white" stroke-width="1.558"/>
<path d="M20.0415 10.8204C20.1411 10.7359 20.2759 10.6885 20.4163 10.6885C20.5568 10.6885 20.6916 10.7359 20.7912 10.8204L21.5437 11.4619C21.6427 11.5469 21.6983 11.6618 21.6983 11.7816C21.6983 11.9014 21.6427 12.0163 21.5437 12.1012L16.609 16.3088C16.4097 16.4784 16.1395 16.5737 15.8579 16.5737C15.5763 16.5737 15.3062 16.4784 15.1068 16.3088L12.296 13.9133C12.1965 13.8283 12.1406 13.7131 12.1406 13.593C12.1406 13.473 12.1965 13.3578 12.296 13.2728L13.0471 12.6324C13.1467 12.5476 13.2818 12.4999 13.4226 12.4999C13.5634 12.4999 13.6985 12.5476 13.7982 12.6324L15.8579 14.3875L20.0415 10.8204Z" fill="#DA3B1F"/>
</g>
</svg>
