<svg width="38" height="28" viewBox="0 0 38 28" fill="none" xmlns="http://www.w3.org/2000/svg">
<mask id="mask0_444_1102" style="mask-type:luminance" maskUnits="userSpaceOnUse" x="0" y="1" width="38" height="28">
<path d="M0.5625 1.89551H37.5625V28.8955H0.5625V1.89551Z" fill="white"/>
</mask>
<g mask="url(#mask0_444_1102)">
<path fill-rule="evenodd" clip-rule="evenodd" d="M33.5326 18.9461C33.7037 19.0211 33.8454 19.1271 33.9437 19.2539C34.042 19.3806 34.0937 19.5238 34.0938 19.6695V23.355C34.0937 23.5007 34.042 23.6438 33.9437 23.7706C33.8454 23.8974 33.7037 24.0034 33.5326 24.0784L28.9076 26.1034C28.7278 26.1821 28.5221 26.2237 28.3125 26.2237C28.1029 26.2237 27.8972 26.1821 27.7174 26.1034L23.0924 24.0784C22.9213 24.0034 22.7796 23.8974 22.6813 23.7706C22.583 23.6438 22.5313 23.5007 22.5313 23.355V19.6706C22.531 19.5248 22.5826 19.3813 22.6809 19.2544C22.7793 19.1274 22.921 19.0212 23.0924 18.9461L27.7174 16.9211C27.8972 16.8424 28.1029 16.8008 28.3125 16.8008C28.5221 16.8008 28.7278 16.8424 28.9076 16.9211L33.5326 18.9461ZM28.3125 24.0435C29.2325 24.0435 30.1148 23.7768 30.7653 23.3021C31.4158 22.8274 31.7813 22.1836 31.7813 21.5122C31.7813 20.8409 31.4158 20.1971 30.7653 19.7224C30.1148 19.2477 29.2325 18.981 28.3125 18.981C27.3925 18.981 26.5102 19.2477 25.8597 19.7224C25.2092 20.1971 24.8438 20.8409 24.8438 21.5122C24.8438 22.1836 25.2092 22.8274 25.8597 23.3021C26.5102 23.7768 27.3925 24.0435 28.3125 24.0435Z" fill="#DA3B1F"/>
<path d="M26.6906 13.2692L20.177 16.408L19.2582 16.021L18.697 16.7939L13.5417 23.8814C13.2998 24.218 12.9671 24.5154 12.5638 24.7558C12.1604 24.9962 11.6946 25.1747 11.1943 25.2805C10.694 25.3862 10.1696 25.4171 9.65257 25.3712C9.13554 25.3254 8.63654 25.2037 8.18554 25.0136C7.73455 24.8235 7.34087 24.5688 7.02814 24.2649C6.71541 23.961 6.4901 23.614 6.36572 23.2449C6.24135 22.8759 6.22048 22.4923 6.30438 22.1171C6.38827 21.742 6.5752 21.3832 6.85393 21.0621L12.6876 14.2615L13.3228 13.5201L12.4039 13.1331L12.8711 7.44736L17.8106 4.69336L20.0413 5.63386L17.3958 8.31923L16.9303 8.79173L17.3696 9.27661L18.7941 10.8516L19.1133 11.2037L19.6898 11.2285L22.2706 11.341L23.0661 11.377L23.3945 10.846L25.2583 7.83098L27.4891 8.77148L26.6906 13.2704V13.2692Z" fill="black" stroke="white" stroke-width="1.5"/>
</g>
</svg>
