<svg width="20" height="23" viewBox="0 0 20 23" fill="none" xmlns="http://www.w3.org/2000/svg">
<path d="M17.8703 7.7483H16.4691C16.3917 7.7494 16.3174 7.78376 16.2609 7.84462C15.8134 7.02309 15.3503 6.36543 14.9909 5.95215C13.7409 4.51465 6.24094 4.51465 4.99094 5.95215C4.63281 6.36471 4.17219 7.01805 3.72719 7.83384C3.67357 7.78073 3.60544 7.75096 3.53469 7.74974H2.13281C1.96094 7.74974 1.82031 7.91218 1.82031 8.10912V8.83505C1.82031 9.03199 1.95781 9.22318 2.12656 9.26127L2.97656 9.44815C2.24281 11.3298 1.81031 13.6715 2.49031 16.0175V17.4097C2.49031 17.8072 2.57781 18.1285 2.68594 18.1285H4.28719C4.39531 18.1285 4.48281 17.8072 4.48281 17.4097V16.2712C5.91906 16.4294 7.95156 16.6019 9.99031 16.6019C12.0103 16.6019 14.0653 16.4322 15.4991 16.2756V17.4097C15.4991 17.8072 15.5866 18.1285 15.6941 18.1285H17.2953C17.4028 18.1285 17.4903 17.8072 17.4903 17.4097L17.4891 16.0168C18.1684 13.6737 17.7372 11.3334 17.0047 9.45174L17.8747 9.26127C17.9596 9.23907 18.0357 9.18512 18.0911 9.10787C18.1465 9.03062 18.1781 8.93443 18.1809 8.83434V8.1084C18.1811 8.06133 18.1732 8.01469 18.1577 7.97115C18.1421 7.9276 18.1193 7.888 18.0904 7.85462C18.0616 7.82124 18.0273 7.79473 17.9895 7.77661C17.9517 7.75849 17.9112 7.74912 17.8703 7.74902V7.7483ZM4.44344 13.5896C4.14959 13.5784 3.87105 13.4362 3.66663 13.1932C3.46222 12.9502 3.34794 12.6253 3.34794 12.2872C3.34794 11.9491 3.46222 11.6242 3.66663 11.3812C3.87105 11.1382 4.14959 10.9961 4.44344 10.9848C4.73728 10.9962 5.01579 11.1384 5.22015 11.3815C5.42451 11.6245 5.5387 11.9495 5.53862 12.2876C5.53854 12.6257 5.42419 12.9505 5.21971 13.1935C5.01524 13.4364 4.73729 13.5785 4.44344 13.5896ZM3.49094 9.85927C4.09094 8.28018 4.92656 7.04393 5.43281 6.4603C5.79781 6.03984 7.52031 5.59277 9.99031 5.59277C12.4609 5.59277 14.1828 6.04055 14.5484 6.46102C15.0547 7.04321 15.8897 8.27946 16.4897 9.85927C15.1572 10.0289 12.5616 9.63646 9.99094 9.63646C7.42031 9.63646 4.82469 10.0289 3.49094 9.85927ZM15.5372 13.5896C15.2433 13.5784 14.9648 13.4362 14.7604 13.1932C14.556 12.9502 14.4417 12.6253 14.4417 12.2872C14.4417 11.9491 14.556 11.6242 14.7604 11.3812C14.9648 11.1382 15.2433 10.9961 15.5372 10.9848C15.831 10.9962 16.1095 11.1384 16.3139 11.3815C16.5183 11.6245 16.6325 11.9495 16.6324 12.2876C16.6323 12.6257 16.5179 12.9505 16.3135 13.1935C16.109 13.4364 15.831 13.5785 15.5372 13.5896Z" fill="black"/>
</svg>
