<svg width="16" height="16" viewBox="0 0 16 16" fill="none" xmlns="http://www.w3.org/2000/svg">
<g clip-path="url(#clip0_308_4072)">
<path d="M1.85719 7.86071C1.87504 7.08036 2.03576 6.32322 2.33754 5.61071C2.64647 4.87857 3.08933 4.22321 3.65362 3.65714C4.2179 3.09107 4.87504 2.64821 5.60719 2.33929C6.36433 2.01964 7.1679 1.85714 7.99826 1.85714C8.82862 1.85714 9.63219 2.01964 10.3875 2.33929C11.1176 2.64758 11.7805 3.09521 12.3393 3.65714C12.5161 3.83393 12.6822 4.02143 12.8358 4.21786L11.7608 5.05714C11.7395 5.0736 11.7233 5.09572 11.714 5.12097C11.7048 5.14622 11.7028 5.17356 11.7084 5.19987C11.714 5.22617 11.7269 5.25036 11.7457 5.26965C11.7644 5.28894 11.7882 5.30256 11.8143 5.30893L14.9518 6.07679C15.0411 6.09821 15.1286 6.03036 15.1286 5.93929L15.1429 2.70893C15.1429 2.58929 15.0054 2.52143 14.9125 2.59643L13.9054 3.38393C12.5322 1.62679 10.3965 0.5 7.99647 0.5C3.9054 0.5 0.57683 3.77857 0.500045 7.85357C0.499568 7.87263 0.502911 7.89159 0.509876 7.90934C0.516842 7.92708 0.527289 7.94326 0.540603 7.9569C0.553916 7.97055 0.569826 7.98139 0.587395 7.98879C0.604964 7.9962 0.623837 8.00001 0.642902 8H1.71433C1.7929 8 1.8554 7.9375 1.85719 7.86071ZM15.3572 8H14.2858C14.2072 8 14.1447 8.0625 14.1429 8.13929C14.125 8.91964 13.9643 9.67679 13.6625 10.3893C13.3536 11.1214 12.9108 11.7786 12.3465 12.3429C11.7769 12.9148 11.0998 13.3683 10.3541 13.6772C9.60843 13.9861 8.80897 14.1444 8.00183 14.1429C7.19496 14.1444 6.39578 13.9861 5.6504 13.6771C4.90502 13.3682 4.22819 12.9147 3.65897 12.3429C3.48219 12.1661 3.31612 11.9786 3.16254 11.7821L4.23754 10.9429C4.25881 10.9264 4.27501 10.9043 4.28426 10.879C4.29352 10.8538 4.29546 10.8264 4.28986 10.8001C4.28427 10.7738 4.27136 10.7496 4.25263 10.7303C4.2339 10.7111 4.2101 10.6974 4.18397 10.6911L1.04647 9.92321C0.957187 9.90179 0.869687 9.96964 0.869687 10.0607L0.857187 13.2929C0.857187 13.4125 0.994688 13.4804 1.08754 13.4054L2.09469 12.6179C3.4679 14.3732 5.60362 15.5 8.00362 15.5C12.0965 15.5 15.4233 12.2196 15.5 8.14643C15.5005 8.12737 15.4972 8.10841 15.4902 8.09066C15.4832 8.07292 15.4728 8.05674 15.4595 8.0431C15.4462 8.02945 15.4303 8.01861 15.4127 8.01121C15.3951 8.0038 15.3763 7.99999 15.3572 8Z" fill="black"/>
</g>
<defs>
<clipPath id="clip0_308_4072">
<rect width="16" height="16" fill="white"/>
</clipPath>
</defs>
</svg>
